<?xml version="1.0" standalone="no"?>
<!DOCTYPE svg PUBLIC "-//W3C//DTD SVG 20010904//EN"
 "http://www.w3.org/TR/2001/REC-SVG-20010904/DTD/svg10.dtd">
<svg version="1.0" xmlns="http://www.w3.org/2000/svg"
 width="260.000000pt" height="260.000000pt" viewBox="0 0 260.000000 260.000000"
 preserveAspectRatio="xMidYMid meet">
<metadata>
Created by potrace 1.11, written by Peter Selinger 2001-2013
</metadata>
<g transform="translate(0.000000,260.000000) scale(0.100000,-0.100000)"
fill="#000000" stroke="none">
<path d="M1155 2593 c-11 -2 -56 -11 -100 -19 -169 -31 -324 -96 -485 -202
-114 -76 -236 -192 -244 -234 -7 -33 -71 -108 -92 -108 -13 0 -67 -91 -116
-192 -34 -71 -71 -188 -93 -293 -17 -79 -28 -314 -18 -367 5 -27 5 -27 37 -12
17 9 46 30 64 48 31 29 34 30 46 13 13 -16 15 -16 40 4 21 16 27 29 24 52 -3
28 -1 30 40 33 62 5 108 30 181 102 88 85 136 117 214 143 58 19 67 25 72 51
10 45 81 111 305 286 134 104 197 165 251 242 27 39 53 63 85 79 26 12 48 20
50 18 2 -2 -14 -33 -35 -69 -64 -109 -90 -170 -102 -233 -6 -33 -15 -69 -19
-80 -7 -18 -10 -16 -24 18 -9 20 -19 37 -23 37 -3 0 -40 -33 -82 -73 -42 -40
-112 -96 -156 -126 -43 -29 -87 -65 -96 -79 -26 -44 -50 -59 -114 -76 -34 -8
-81 -27 -105 -40 -25 -14 -60 -33 -78 -42 -47 -24 -95 -73 -128 -132 -21 -38
-39 -56 -74 -72 -25 -12 -55 -35 -67 -52 -12 -17 -46 -57 -76 -87 -29 -31 -67
-74 -83 -96 -16 -22 -32 -42 -35 -45 -3 -3 -17 -23 -31 -45 l-25 -40 17 -51
c16 -46 85 -192 96 -204 3 -2 15 9 28 25 22 27 23 27 28 7 3 -11 0 -33 -8 -48
-19 -37 -19 -38 28 -102 108 -147 309 -316 469 -393 81 -39 186 -79 210 -79
28 0 49 52 54 128 2 37 4 74 4 83 1 9 23 41 50 72 27 31 57 70 67 86 9 16 37
41 60 56 37 23 46 36 59 82 26 90 85 165 152 196 12 5 34 34 50 64 47 95 143
163 227 163 14 0 26 -1 26 -3 0 -1 -9 -27 -19 -57 -17 -47 -17 -58 -6 -80 13
-24 12 -25 -86 -78 -54 -29 -103 -50 -109 -47 -5 3 -10 17 -10 31 0 17 -5 24
-20 24 -16 0 -20 -7 -20 -30 0 -17 7 -41 15 -54 19 -29 8 -65 -31 -98 -43 -37
-56 -73 -63 -164 -1 -6 -18 -28 -38 -49 -20 -21 -56 -74 -79 -119 -86 -168
-100 -190 -124 -212 -14 -12 -23 -25 -20 -27 28 -28 330 -30 474 -3 174 32
390 129 546 245 115 86 257 247 331 376 70 122 136 297 154 409 3 17 7 42 10
56 3 14 7 56 10 93 5 66 4 68 -17 66 -13 -1 -33 -1 -46 -1 l-23 2 26 38 c28
41 26 43 -37 56 -16 4 -28 11 -28 16 0 14 58 49 93 57 32 7 32 8 7 128 -87
399 -318 701 -680 888 -58 30 -119 59 -137 65 l-31 10 -18 -66 c-20 -78 -30
-101 -55 -124 -39 -38 -77 -3 -39 37 24 26 25 50 4 100 -12 29 -13 44 -5 62 9
20 8 23 -14 28 -14 3 -36 7 -50 10 -23 5 -24 3 -19 -25 11 -51 -37 -34 -72 26
-10 17 -24 19 -145 20 -74 0 -143 -1 -154 -3z m314 -232 c14 -22 13 -22 -15
-15 -30 7 -44 20 -44 41 0 19 41 0 59 -26z m-46 -71 c-4 -3 -28 -22 -52 -41
l-45 -34 19 32 c18 31 46 50 72 50 8 0 10 -3 6 -7z m-1130 -394 c3 -8 3 -24 0
-37 -6 -20 -7 -20 -18 -5 -13 17 -9 56 5 56 4 0 10 -6 13 -14z m1277 -15 c0
-20 40 -22 71 -4 30 18 31 18 46 -2 10 -13 13 -34 10 -63 -6 -52 -12 -60 -37
-44 -24 14 -47 6 -55 -19 -8 -25 -29 -25 -22 1 3 10 -1 27 -8 37 -12 16 -15
14 -31 -20 l-18 -38 37 -34 c38 -35 41 -42 31 -69 -9 -23 -21 -20 -65 14 -52
42 -55 59 -21 122 17 29 33 70 36 91 4 20 11 37 16 37 6 0 10 -4 10 -9z
m-1259 -121 c0 -5 1 -26 1 -45 0 -63 -1 -65 -26 -65 -13 0 -26 6 -29 13 -9 23
1 90 15 98 18 12 38 11 39 -1z m1972 -176 c-4 -88 -15 -107 -33 -58 -13 34
-13 67 2 82 19 19 33 8 31 -24z m97 -23 c0 -31 -25 -45 -45 -25 -16 17 -16 18
1 31 25 19 44 16 44 -6z m-737 -121 c-9 -16 -21 -30 -25 -30 -12 0 -39 -60
-32 -71 8 -13 -13 -29 -37 -29 -9 0 -19 6 -22 13 -6 17 10 108 21 119 7 7 64
21 105 27 5 1 0 -12 -10 -29z m616 -29 c17 -11 7 -41 -13 -41 -13 0 -36 28
-36 44 0 9 33 7 49 -3z m-719 -222 c0 -31 -25 -41 -51 -21 -21 18 -22 22 -9
51 l13 32 23 -22 c13 -13 24 -30 24 -40z m109 -94 c14 -40 10 -50 -20 -58 -17
-5 -31 3 -56 30 l-33 37 0 -35 c0 -42 -24 -60 -71 -53 -48 8 -64 25 -52 61 9
27 13 28 74 29 66 1 117 9 127 19 11 11 18 4 31 -30z m259 15 c-13 -21 -62
-28 -73 -10 -3 6 -3 10 2 11 28 3 68 11 72 15 11 10 10 2 -1 -16z m-866 -165
c-6 -32 -37 -55 -74 -55 -34 0 -28 27 8 36 13 3 24 9 24 14 0 4 10 12 23 18
12 6 23 11 23 11 1 1 -1 -10 -4 -24z m-203 -157 c-8 -29 -48 -73 -57 -63 -4 4
58 95 64 95 1 0 -2 -15 -7 -32z m321 -702 c0 -2 -7 -6 -15 -10 -8 -3 -15 -1
-15 4 0 6 7 10 15 10 8 0 15 -2 15 -4z"/>
<path d="M100 1160 c-13 -11 -28 -20 -35 -20 -12 0 -45 -31 -45 -43 0 -12 73
29 94 52 26 28 15 36 -14 11z"/>
</g>
</svg>
